#Comment line ignore any data following # character 
#Hierarchical Translation and Rotation (.htr) file 
[Header]	
#Header keywords are followed by a single value 
FileType HTR		#Single word string
DataType HTRS		#Translation followed by rotation and scale data
FileVersion 1		#integer
NumSegments 84		#integer
NumFrames 2		#integer
DataFrameRate 30		#integer, data frame rate in this file
EulerRotationOrder ZYX
CalibrationUnits mm
RotationUnits Degrees
GlobalAxisofGravity Y
BoneLengthAxis Y
ScaleFactor 1.00
[SegmentNames&Hierarchy]
#CHILD	PARENT
MASTER GLOBAL
root MASTER
chest root
L_mid_tent01 root
R_mid_tent01 root
spine01 root
Bip01_Neck chest
L_humerus chest
R_humerus chest
weapon_bone chest
Bip01_Head Bip01_Neck
eye_left_bone Bip01_Head
eye_right_bone Bip01_Head
L_forearm L_humerus
L_front_hand L_forearm
L_weapon_bone L_forearm
L_front_hand01_01 L_front_hand
L_front_hand02_01 L_front_hand
L_front_hand03_01 L_front_hand
L_front_hand01_02 L_front_hand01_01
L_front_hand02_02 L_front_hand02_01
L_front_hand03_02 L_front_hand03_01
R_forearm R_humerus
R_front_hand R_forearm
R_weapon_bone R_forearm
R_front_hand01_01 R_front_hand
R_front_hand02_01 R_front_hand
R_front_hand03_01 R_front_hand
R_front_hand01_02 R_front_hand01_01
R_front_hand02_02 R_front_hand02_01
R_front_hand03_02 R_front_hand03_01
null_rope01_connect L_mid_tent01
Rope1_Seg01 null_rope01_connect
Rope1_Seg02 Rope1_Seg01
Rope1_Seg03 Rope1_Seg02
Rope1_Seg04 Rope1_Seg03
Rope1_Seg05 Rope1_Seg04
Rope1_Seg06 Rope1_Seg05
Rope1_Seg07 Rope1_Seg06
Rope1_Seg09 Rope1_Seg07
L_mid_hand01 Rope1_Seg09
L_mid_hand02 Rope1_Seg09
L_mid_hand03 Rope1_Seg09
null_rope02_connect R_mid_tent01
Rope2_Seg01 null_rope02_connect
Rope2_Seg02 Rope2_Seg01
Rope2_Seg03 Rope2_Seg02
Rope2_Seg04 Rope2_Seg03
Rope2_Seg05 Rope2_Seg04
Rope2_Seg06 Rope2_Seg05
Rope2_Seg07 Rope2_Seg06
Rope2_Seg09 Rope2_Seg07
R_mid_hand01 Rope2_Seg09
R_mid_hand02 Rope2_Seg09
R_mid_hand03 Rope2_Seg09
spine02 spine01
spine03 spine02
pelvis spine03
null_rope03_connect pelvis
null_rope04_connect pelvis
Rope3_Seg01 null_rope03_connect
Rope3_Seg02 Rope3_Seg01
Rope3_Seg03 Rope3_Seg02
Rope3_Seg04 Rope3_Seg03
Rope3_Seg05 Rope3_Seg04
Rope3_Seg06 Rope3_Seg05
Rope3_Seg07 Rope3_Seg06
Rope3_Seg08 Rope3_Seg07
Rope3_Seg09 Rope3_Seg08
R_rear_hand01 Rope3_Seg09
R_rear_hand02 Rope3_Seg09
R_rear_hand03 Rope3_Seg09
Rope4_Seg01 null_rope04_connect
Rope4_Seg02 Rope4_Seg01
Rope4_Seg03 Rope4_Seg02
Rope4_Seg04 Rope4_Seg03
Rope4_Seg05 Rope4_Seg04
Rope4_Seg06 Rope4_Seg05
Rope4_Seg07 Rope4_Seg06
Rope4_Seg08 Rope4_Seg07
Rope4_Seg09 Rope4_Seg08
L_rear_hand01 Rope4_Seg09
L_rear_hand02 Rope4_Seg09
L_rear_hand03 Rope4_Seg09
[BasePosition]
#SegmentName Tx, Ty, Tz, Rx, Ry, Rz, BoneLength
MASTER 0.000000 0.000000 0.000000 -90.000000 0.000000 0.000000 10.000000 
root 0.000000 0.000000 0.000000 0.000000 0.000000 0.000000 10.000000 
chest 0.000000 0.000000 0.000000 0.000000 0.000000 0.000000 10.000000 
L_mid_tent01 0.000000 0.000000 0.000000 0.000000 0.000000 0.000000 10.000000 
R_mid_tent01 0.000000 0.000000 0.000000 0.000000 0.000000 0.000000 10.000000 
spine01 0.000000 0.000000 0.000000 0.000000 0.000000 0.000000 10.000000 
Bip01_Neck 0.000000 0.000000 0.000000 0.000000 0.000000 0.000000 10.000000 
L_humerus 0.000000 0.000000 0.000000 0.000000 0.000000 0.000000 10.000000 
R_humerus 0.000000 0.000000 0.000000 0.000000 0.000000 0.000000 10.000000 
weapon_bone 0.000000 0.000000 0.000000 0.000000 0.000000 0.000000 10.000000 
Bip01_Head 0.000000 0.000000 0.000000 0.000000 0.000000 0.000000 10.000000 
eye_left_bone 0.000000 0.000000 0.000000 0.000000 0.000000 0.000000 10.000000 
eye_right_bone 0.000000 0.000000 0.000000 0.000000 0.000000 0.000000 10.000000 
L_forearm 0.000000 0.000000 0.000000 0.000000 0.000000 0.000000 10.000000 
L_front_hand 0.000000 0.000000 0.000000 0.000000 0.000000 0.000000 10.000000 
L_weapon_bone 0.000000 0.000000 0.000000 0.000000 0.000000 0.000000 10.000000 
L_front_hand01_01 0.000000 0.000000 0.000000 0.000000 0.000000 0.000000 10.000000 
L_front_hand02_01 0.000000 0.000000 0.000000 0.000000 0.000000 0.000000 10.000000 
L_front_hand03_01 0.000000 0.000000 0.000000 0.000000 0.000000 0.000000 10.000000 
L_front_hand01_02 0.000000 0.000000 0.000000 0.000000 0.000000 0.000000 10.000000 
L_front_hand02_02 0.000000 0.000000 0.000000 0.000000 0.000000 0.000000 10.000000 
L_front_hand03_02 0.000000 0.000000 0.000000 0.000000 0.000000 0.000000 10.000000 
R_forearm 0.000000 0.000000 0.000000 0.000000 0.000000 0.000000 10.000000 
R_front_hand 0.000000 0.000000 0.000000 0.000000 0.000000 0.000000 10.000000 
R_weapon_bone 0.000000 0.000000 0.000000 0.000000 0.000000 0.000000 10.000000 
R_front_hand01_01 0.000000 0.000000 0.000000 0.000000 0.000000 0.000000 10.000000 
R_front_hand02_01 0.000000 0.000000 0.000000 0.000000 0.000000 0.000000 10.000000 
R_front_hand03_01 0.000000 0.000000 0.000000 0.000000 0.000000 0.000000 10.000000 
R_front_hand01_02 0.000000 0.000000 0.000000 0.000000 0.000000 0.000000 10.000000 
R_front_hand02_02 0.000000 0.000000 0.000000 0.000000 0.000000 0.000000 10.000000 
R_front_hand03_02 0.000000 0.000000 0.000000 0.000000 0.000000 0.000000 10.000000 
null_rope01_connect 0.000000 0.000000 0.000000 0.000000 0.000000 0.000000 10.000000 
Rope1_Seg01 0.000000 0.000000 0.000000 0.000000 0.000000 0.000000 10.000000 
Rope1_Seg02 0.000000 0.000000 0.000000 0.000000 0.000000 0.000000 10.000000 
Rope1_Seg03 0.000000 0.000000 0.000000 0.000000 0.000000 0.000000 10.000000 
Rope1_Seg04 0.000000 0.000000 0.000000 0.000000 0.000000 0.000000 10.000000 
Rope1_Seg05 0.000000 0.000000 0.000000 0.000000 0.000000 0.000000 10.000000 
Rope1_Seg06 0.000000 0.000000 0.000000 0.000000 0.000000 0.000000 10.000000 
Rope1_Seg07 0.000000 0.000000 0.000000 0.000000 0.000000 0.000000 10.000000 
Rope1_Seg09 0.000000 0.000000 0.000000 0.000000 0.000000 0.000000 10.000000 
L_mid_hand01 0.000000 0.000000 0.000000 0.000000 0.000000 0.000000 10.000000 
L_mid_hand02 0.000000 0.000000 0.000000 0.000000 0.000000 0.000000 10.000000 
L_mid_hand03 0.000000 0.000000 0.000000 0.000000 0.000000 0.000000 10.000000 
null_rope02_connect 0.000000 0.000000 0.000000 0.000000 0.000000 0.000000 10.000000 
Rope2_Seg01 0.000000 0.000000 0.000000 0.000000 0.000000 0.000000 10.000000 
Rope2_Seg02 0.000000 0.000000 0.000000 0.000000 0.000000 0.000000 10.000000 
Rope2_Seg03 0.000000 0.000000 0.000000 0.000000 0.000000 0.000000 10.000000 
Rope2_Seg04 0.000000 0.000000 0.000000 0.000000 0.000000 0.000000 10.000000 
Rope2_Seg05 0.000000 0.000000 0.000000 0.000000 0.000000 0.000000 10.000000 
Rope2_Seg06 0.000000 0.000000 0.000000 0.000000 0.000000 0.000000 10.000000 
Rope2_Seg07 0.000000 0.000000 0.000000 0.000000 0.000000 0.000000 10.000000 
Rope2_Seg09 0.000000 0.000000 0.000000 0.000000 0.000000 0.000000 10.000000 
R_mid_hand01 0.000000 0.000000 0.000000 0.000000 0.000000 0.000000 10.000000 
R_mid_hand02 0.000000 0.000000 0.000000 0.000000 0.000000 0.000000 10.000000 
R_mid_hand03 0.000000 0.000000 0.000000 0.000000 0.000000 0.000000 10.000000 
spine02 0.000000 0.000000 0.000000 0.000000 0.000000 0.000000 10.000000 
spine03 0.000000 0.000000 0.000000 0.000000 0.000000 0.000000 10.000000 
pelvis 0.000000 0.000000 0.000000 0.000000 0.000000 0.000000 10.000000 
null_rope03_connect 0.000000 0.000000 0.000000 0.000000 0.000000 0.000000 10.000000 
null_rope04_connect 0.000000 0.000000 0.000000 0.000000 0.000000 0.000000 10.000000 
Rope3_Seg01 0.000000 0.000000 0.000000 0.000000 0.000000 0.000000 10.000000 
Rope3_Seg02 0.000000 0.000000 0.000000 0.000000 0.000000 0.000000 10.000000 
Rope3_Seg03 0.000000 0.000000 0.000000 0.000000 0.000000 0.000000 10.000000 
Rope3_Seg04 0.000000 0.000000 0.000000 0.000000 0.000000 0.000000 10.000000 
Rope3_Seg05 0.000000 0.000000 0.000000 0.000000 0.000000 0.000000 10.000000 
Rope3_Seg06 0.000000 0.000000 0.000000 0.000000 0.000000 0.000000 10.000000 
Rope3_Seg07 0.000000 0.000000 0.000000 0.000000 0.000000 0.000000 10.000000 
Rope3_Seg08 0.000000 0.000000 0.000000 0.000000 0.000000 0.000000 10.000000 
Rope3_Seg09 0.000000 0.000000 0.000000 0.000000 0.000000 0.000000 10.000000 
R_rear_hand01 0.000000 0.000000 0.000000 0.000000 0.000000 0.000000 10.000000 
R_rear_hand02 0.000000 0.000000 0.000000 0.000000 0.000000 0.000000 10.000000 
R_rear_hand03 0.000000 0.000000 0.000000 0.000000 0.000000 0.000000 10.000000 
Rope4_Seg01 0.000000 0.000000 0.000000 0.000000 0.000000 0.000000 10.000000 
Rope4_Seg02 0.000000 0.000000 0.000000 0.000000 0.000000 0.000000 10.000000 
Rope4_Seg03 0.000000 0.000000 0.000000 0.000000 0.000000 0.000000 10.000000 
Rope4_Seg04 0.000000 0.000000 0.000000 0.000000 0.000000 0.000000 10.000000 
Rope4_Seg05 0.000000 0.000000 0.000000 0.000000 0.000000 0.000000 10.000000 
Rope4_Seg06 0.000000 0.000000 0.000000 0.000000 0.000000 0.000000 10.000000 
Rope4_Seg07 0.000000 0.000000 0.000000 0.000000 0.000000 0.000000 10.000000 
Rope4_Seg08 0.000000 0.000000 0.000000 0.000000 0.000000 0.000000 10.000000 
Rope4_Seg09 0.000000 0.000000 0.000000 0.000000 0.000000 0.000000 10.000000 
L_rear_hand01 0.000000 0.000000 0.000000 0.000000 0.000000 0.000000 10.000000 
L_rear_hand02 0.000000 0.000000 0.000000 0.000000 0.000000 0.000000 10.000000 
L_rear_hand03 0.000000 0.000000 0.000000 0.000000 0.000000 0.000000 10.000000 
#Beginning of Data. Separated by tabs
#Fr	Tx	Ty	Tz	Rx	Ry	Rz	SF
[MASTER]
64 2443.799072 2790.114502 1825.333008 0.001660 0.001660 0.001660 4133.852051
65 2445.153320 2790.114502 1823.022095 0.001660 0.001660 0.001660 4133.633301
[root]
64 86.362999 -51.398621 293.232025 -10.305539 3.057725 -112.855537 309.976471
65 83.238159 -51.398621 291.717651 -10.183283 3.033456 -112.795067 307.684235
[chest]
64 -84.512650 -34.090519 0.000000 24.504169 10.507077 160.395645 91.129311
65 -84.512650 -34.090519 0.000000 24.725634 10.480510 160.594986 91.129311
[L_mid_tent01]
64 27.298967 22.179203 -249.918701 1.682831 20.255989 83.597778 252.381683
65 27.298965 22.179203 -249.918701 1.474947 20.249084 83.067093 252.381683
[R_mid_tent01]
64 23.228794 24.509907 226.238495 171.502548 -19.219660 70.571976 228.744751
65 23.228794 24.509907 226.238495 171.233276 -19.503622 70.296234 228.744751
[spine01]
64 -0.361383 -0.195265 0.000000 0.001916 0.001356 19.432293 0.410763
65 -0.361383 -0.195265 0.000000 0.001914 0.001358 19.301865 0.410763
[Bip01_Neck]
64 165.484543 71.581718 0.000119 176.643677 -1.657967 43.431911 180.302734
65 165.484543 71.581718 0.000119 176.643677 -1.657967 43.431911 180.302734
[L_humerus]
64 -13.983130 -135.272980 -120.471481 18.301592 62.173370 131.837433 181.680161
65 -13.983130 -135.272980 -120.471481 19.419632 63.110798 132.752197 181.680161
[R_humerus]
64 -13.983309 -135.273102 125.287651 -166.635162 -73.310097 -98.667671 184.909012
65 -13.983309 -135.273102 125.287651 -167.160187 -72.674660 -98.119629 184.909012
[weapon_bone]
64 235.964890 -300.705902 0.000000 0.000000 -89.951546 -128.212341 382.234833
65 235.964890 -300.705902 0.000000 0.000000 -89.951546 -128.212341 382.234833
[Bip01_Head]
64 201.027603 166.803574 49.229012 78.136917 38.518353 -13.657247 265.817657
65 201.027588 166.803558 49.229008 78.136925 38.518360 -13.657246 265.817627
[eye_left_bone]
64 -24.626970 125.451866 -64.772606 0.000000 -90.000000 -99.840431 143.318359
65 -24.626970 125.451866 -64.772606 0.000000 -90.000000 -99.840431 143.318359
[eye_right_bone]
64 -24.626970 125.451866 64.327362 0.000000 -89.965736 80.156380 143.117676
65 -24.626970 125.451866 64.327362 0.000000 -89.965736 80.156380 143.117676
[L_forearm]
64 322.776093 0.000000 -0.000119 0.000093 -0.002345 -94.561371 322.776093
65 322.776093 0.000000 -0.000119 0.000102 -0.002345 -94.958961 322.776093
[L_front_hand]
64 241.149185 -0.042021 -3.300071 60.145355 -2.204067 -5.138963 241.171753
65 241.149185 -0.042021 -3.300071 60.145355 -2.204066 -5.138964 241.171753
[L_weapon_bone]
64 156.183838 0.000000 0.000000 0.000014 0.000007 0.000001 156.183838
65 156.183838 0.000000 0.000000 0.000014 0.000007 0.000001 156.183838
[L_front_hand01_01]
64 86.095154 20.947098 -0.655860 -0.366594 -0.477154 75.385574 88.609184
65 86.095154 20.947098 -0.655860 -0.366594 -0.477154 75.385574 88.609184
[L_front_hand02_01]
64 86.935165 -11.437475 24.513514 154.399796 -59.883835 -61.369587 91.046425
65 86.935165 -11.437475 24.513514 154.399796 -59.883835 -61.369587 91.046425
[L_front_hand03_01]
64 86.637497 -14.123976 -20.424902 -153.913849 58.118122 -62.702866 90.126129
65 86.637497 -14.123976 -20.424902 -153.913849 58.118122 -62.702866 90.126129
[L_front_hand01_02]
64 71.020905 -0.000179 0.000030 0.000334 -0.002323 -106.379684 71.020905
65 71.020905 -0.000179 0.000030 0.000334 -0.002323 -106.379684 71.020905
[L_front_hand02_02]
64 71.020927 -0.000119 0.000060 0.000334 -0.002323 -106.379684 71.020927
65 71.020927 -0.000119 0.000060 0.000334 -0.002323 -106.379684 71.020927
[L_front_hand03_02]
64 71.020905 -0.000060 0.000060 0.000334 -0.002323 -106.379684 71.020905
65 71.020905 -0.000060 0.000060 0.000334 -0.002323 -106.379684 71.020905
[R_forearm]
64 322.776428 -0.000060 0.000030 0.201455 0.067141 -109.188614 322.776428
65 322.776428 -0.000060 0.000030 0.201479 0.067067 -109.146858 322.776428
[R_front_hand]
64 238.847015 -0.006795 2.210259 -2.635298 -10.645461 -26.312506 238.857239
65 238.847015 -0.006795 2.210259 -2.635298 -10.645461 -26.312506 238.857239
[R_weapon_bone]
64 155.664093 0.002503 -0.000030 0.003487 0.001180 -90.988930 155.664078
65 155.664093 0.002503 -0.000030 0.003487 0.001180 -90.988930 155.664078
[R_front_hand01_01]
64 87.624611 14.231146 22.918642 -154.633499 -59.950619 61.746044 91.683487
65 87.624611 14.231146 22.918642 -154.633499 -59.950619 61.746044 91.683487
[R_front_hand02_01]
64 89.356956 14.367283 -19.491137 154.602661 58.302849 63.744389 92.579636
65 89.356956 14.367283 -19.491137 154.602661 58.302849 63.744389 92.579636
[R_front_hand03_01]
64 87.286232 -22.307278 -0.143439 0.162155 -0.423168 -75.767921 90.091743
65 87.286232 -22.307278 -0.143439 0.162155 -0.423168 -75.767921 90.091743
[R_front_hand01_02]
64 71.020905 0.000060 0.000119 0.002323 -0.000334 106.381714 71.020905
65 71.020905 0.000060 0.000119 0.002323 -0.000334 106.381714 71.020905
[R_front_hand02_02]
64 71.020844 -0.000030 -0.000119 0.002323 -0.000334 106.381714 71.020836
65 71.020844 -0.000030 -0.000119 0.002323 -0.000334 106.381714 71.020836
[R_front_hand03_02]
64 71.020905 0.000000 0.000030 0.002323 -0.000334 106.381714 71.020905
65 71.020905 0.000000 0.000030 0.002323 -0.000334 106.381714 71.020905
[null_rope01_connect]
64 328.732483 0.000000 -0.000238 -19.299896 -24.788599 33.378067 328.732483
65 328.732483 0.000000 -0.000238 -19.152130 -24.700535 33.768913 328.732483
[Rope1_Seg01]
64 -0.000024 -0.000206 0.000056 -23.016832 44.296783 151.019806 0.000215
65 -0.000024 -0.000209 0.000055 -23.475723 44.760822 150.498947 0.000218
[Rope1_Seg02]
64 139.999863 -0.000179 0.000000 -8.504614 23.607328 -17.090664 139.999863
65 139.999863 -0.000179 0.000000 -8.076029 22.877504 -16.578045 139.999863
[Rope1_Seg03]
64 139.999924 0.000060 -0.000060 -46.004696 31.368450 -18.970694 139.999924
65 139.999924 0.000060 -0.000060 -45.825718 31.451010 -19.396229 139.999924
[Rope1_Seg04]
64 139.999924 -0.000060 -0.000119 -60.528885 17.370855 4.649033 139.999924
65 139.999924 -0.000060 -0.000119 -63.524380 18.253044 4.633971 139.999924
[Rope1_Seg05]
64 139.999832 0.000119 -0.000060 -19.058737 3.419316 7.869329 139.999832
65 139.999832 0.000119 -0.000060 -18.277660 3.053823 8.127322 139.999832
[Rope1_Seg06]
64 139.999954 0.000119 -0.000060 -17.722811 3.064345 12.142384 139.999954
65 139.999954 0.000119 -0.000060 -16.433741 2.548923 11.892521 139.999954
[Rope1_Seg07]
64 139.999985 0.000060 0.000000 -12.735220 -1.335425 19.709784 139.999985
65 139.999985 0.000060 0.000000 -12.264951 -1.480249 19.367798 139.999985
[Rope1_Seg09]
64 121.602913 0.000119 -0.000089 -89.793175 -1.359789 0.847147 121.602913
65 121.602913 0.000119 -0.000089 -89.793175 -1.359789 0.847147 121.602913
[L_mid_hand01]
64 103.859421 1.038730 8.195221 130.544373 -67.584534 -38.866943 104.187431
65 103.859421 1.038730 8.195221 130.544373 -67.584534 -38.866943 104.187431
[L_mid_hand02]
64 105.572853 -4.139662 -10.864139 -168.923172 43.409309 -73.498886 106.211075
65 105.572853 -4.139662 -10.864139 -168.923172 43.409309 -73.498886 106.211075
[L_mid_hand03]
64 104.641464 17.579376 -3.913581 -6.012627 17.808174 74.893669 106.179977
65 104.641464 17.579376 -3.913581 -6.012627 17.808174 74.893669 106.179977
[null_rope02_connect]
64 328.732849 0.000179 -0.000119 -167.637985 -0.217427 -42.570553 328.732849
65 328.732849 0.000179 -0.000119 -167.137161 -0.263618 -42.849464 328.732849
[Rope2_Seg01]
64 0.000021 0.000249 0.000000 -6.747941 -74.511856 170.197983 0.000250
65 0.000021 0.000250 0.000000 -2.839699 -74.163567 166.057938 0.000251
[Rope2_Seg02]
64 139.999741 -0.000060 -0.000119 3.884759 -6.192753 -48.572411 139.999756
65 139.999741 -0.000060 -0.000119 4.771355 -6.393393 -49.552593 139.999756
[Rope2_Seg03]
64 140.000107 0.000030 0.000000 7.559241 -4.984622 -30.532513 140.000107
65 140.000107 0.000030 0.000000 7.269803 -5.193454 -28.505756 140.000107
[Rope2_Seg04]
64 139.999802 0.000000 -0.000060 2.554058 -2.341506 -8.598639 139.999802
65 139.999802 0.000000 -0.000060 2.346529 -2.248744 -8.031482 139.999802
[Rope2_Seg05]
64 139.999985 -0.000060 0.000119 1.217369 -1.032766 -4.189747 139.999985
65 139.999985 -0.000060 0.000119 1.210981 -0.974452 -4.268247 139.999985
[Rope2_Seg06]
64 139.999893 -0.000030 -0.000119 1.163045 -0.737449 -3.975901 139.999893
65 139.999893 -0.000030 -0.000119 1.254031 -0.686913 -4.355800 139.999893
[Rope2_Seg07]
64 139.999893 0.000060 -0.000060 1.448212 -1.169270 -4.480783 139.999893
65 139.999893 0.000060 -0.000060 1.514001 -1.149154 -4.691613 139.999893
[Rope2_Seg09]
64 121.338966 0.000089 -0.000060 33.793236 -1.359788 -0.847141 121.338966
65 121.338966 0.000089 -0.000060 33.793236 -1.359788 -0.847141 121.338966
[R_mid_hand01]
64 104.680779 11.144459 -10.335981 -16.212063 45.237247 70.462852 105.778534
65 104.680779 11.144459 -10.335981 -16.212063 45.237247 70.462852 105.778534
[R_mid_hand02]
64 104.070427 2.443552 8.231699 49.067368 -67.749771 39.286453 104.424065
65 104.070427 2.443552 8.231699 49.067368 -67.749771 39.286453 104.424065
[R_mid_hand03]
64 106.028137 -11.221827 -5.996406 -177.101105 15.551026 -76.585571 106.788818
65 106.028137 -11.221827 -5.996406 -177.101105 15.551026 -76.585571 106.788818
[spine02]
64 129.756927 0.001550 0.000119 0.472925 -4.032217 -14.527483 129.756927
65 129.756927 0.001550 0.000119 0.468900 -4.032701 -14.468959 129.756927
[spine03]
64 78.614143 0.081482 -4.899020 1.964057 3.800039 17.482649 78.766685
65 78.614151 0.081482 -4.899020 1.961560 3.801142 17.444916 78.766693
[pelvis]
64 169.435242 0.051022 0.000000 -0.002080 -0.191397 -3.683622 169.435257
65 169.435242 0.051022 0.000000 -0.001444 -0.191403 -4.064672 169.435257
[null_rope03_connect]
64 -1.257226 -2.466202 137.391083 -6.444971 -7.128466 94.342529 137.418976
65 -1.257226 -2.466202 137.391083 -6.362784 -7.028507 94.754555 137.418976
[null_rope04_connect]
64 -1.259640 -2.480268 -137.844437 -6.444971 -7.128466 94.342529 137.872513
65 -1.259640 -2.480268 -137.844437 -6.362784 -7.028507 94.754555 137.872513
[Rope3_Seg01]
64 -0.000031 -0.000206 0.000000 48.443340 -53.420506 -108.240738 0.000209
65 -0.000031 -0.000209 0.000000 48.139488 -52.884262 -108.248428 0.000211
[Rope3_Seg02]
64 139.999924 -0.000119 0.000060 4.589494 -1.381714 19.303673 139.999924
65 139.999924 -0.000119 0.000060 4.818136 -1.788979 20.351892 139.999924
[Rope3_Seg03]
64 139.999924 -0.000119 0.000119 0.388134 2.677866 38.124336 139.999924
65 139.999924 -0.000119 0.000119 0.096619 2.100965 37.673359 139.999924
[Rope3_Seg04]
64 139.999924 0.000119 0.000000 -16.408058 -2.895647 34.582314 139.999924
65 139.999924 0.000119 0.000000 -15.604817 -3.115934 33.453079 139.999924
[Rope3_Seg05]
64 139.999924 -0.000238 0.000060 -11.163661 -6.762671 8.958661 139.999924
65 139.999924 -0.000238 0.000060 -11.222207 -6.517670 9.716125 139.999924
[Rope3_Seg06]
64 139.999893 -0.000119 -0.000060 -4.145062 -2.802721 3.370818 139.999893
65 139.999893 -0.000119 -0.000060 -4.259657 -2.806432 3.586847 139.999893
[Rope3_Seg07]
64 139.999771 0.000060 -0.000119 -2.292058 -1.787809 1.891087 139.999771
65 139.999771 0.000060 -0.000119 -2.381758 -1.805256 2.014936 139.999771
[Rope3_Seg08]
64 139.999985 -0.000060 0.000000 -1.104284 -1.076378 1.050735 139.999985
65 139.999985 -0.000060 0.000000 -1.162461 -1.089986 1.120677 139.999985
[Rope3_Seg09]
64 90.185997 -0.000179 -0.000060 89.793228 -1.359877 -0.847183 90.185997
65 90.185997 -0.000179 -0.000060 89.793228 -1.359877 -0.847183 90.185997
[R_rear_hand01]
64 103.366196 -6.073594 -10.757982 -177.714203 24.565960 -73.910950 104.101845
65 103.366196 -6.073594 -10.757982 -177.714203 24.565960 -73.910950 104.101845
[R_rear_hand02]
64 100.509819 12.039542 -7.992327 -12.874829 36.868488 72.167213 101.543350
65 100.509819 12.039542 -7.992327 -12.874829 36.868488 72.167213 101.543350
[R_rear_hand03]
64 101.539970 5.215704 5.435467 71.484581 -71.816628 21.513813 101.819031
65 101.539970 5.215704 5.435467 71.484581 -71.816628 21.513813 101.819031
[Rope4_Seg01]
64 0.000010 0.000038 -0.000114 -91.057137 64.235291 -83.444168 0.000121
65 0.000010 0.000038 -0.000114 -90.227074 64.009193 -82.527069 0.000121
[Rope4_Seg02]
64 139.999985 0.000060 0.000119 -0.872975 -8.842780 5.047458 139.999985
65 139.999985 0.000060 0.000119 -0.813143 -8.853938 5.085759 139.999985
[Rope4_Seg03]
64 139.999924 0.000000 -0.000238 0.009020 -16.534067 9.476680 139.999924
65 139.999924 0.000000 -0.000238 0.123065 -16.546434 9.570580 139.999924
[Rope4_Seg04]
64 139.999985 0.000000 0.000119 4.805146 -26.644398 22.833145 139.999985
65 139.999985 0.000000 0.000119 4.985229 -26.439209 23.061518 139.999985
[Rope4_Seg05]
64 139.999802 -0.000060 -0.000119 9.252771 -18.644621 12.365179 139.999802
65 139.999802 -0.000060 -0.000119 9.236131 -18.573450 12.303894 139.999802
[Rope4_Seg06]
64 139.999924 0.000000 0.000060 2.861477 -11.715709 -2.425591 139.999924
65 139.999924 0.000000 0.000060 2.987675 -11.928033 -2.394860 139.999924
[Rope4_Seg07]
64 139.999802 0.000000 0.000000 4.239854 -7.242284 0.363009 139.999802
65 139.999802 0.000000 0.000000 4.416619 -7.268180 0.494670 139.999802
[Rope4_Seg08]
64 139.999924 0.000000 0.000119 2.397402 -3.902082 1.249814 139.999924
65 139.999924 0.000000 0.000119 2.466980 -3.890656 1.293903 139.999924
[Rope4_Seg09]
64 90.185791 0.000060 0.000060 -135.617828 2.228885 0.850567 90.185791
65 90.185791 0.000060 0.000060 -135.617828 2.228885 0.850567 90.185791
[L_rear_hand01]
64 101.696655 -8.392275 -7.654577 -12.874829 -36.868488 107.832764 102.329041
65 101.696655 -8.392275 -7.654577 -12.874829 -36.868488 107.832764 102.329041
[L_rear_hand02]
64 102.726799 -1.568258 5.773216 71.484581 71.816628 158.486160 102.900848
65 102.726799 -1.568258 5.773216 71.484581 71.816628 158.486160 102.900848
[L_rear_hand03]
64 104.552910 9.721220 -10.420293 -177.714203 -24.565960 -106.089035 105.519653
65 104.552910 9.721220 -10.420293 -177.714203 -24.565960 -106.089035 105.519653
